HIERARCHY
ROOT joint_0
{
	OFFSET 0.000000 0.000000 0.000000
	CHANNELS 6 Xposition Yposition Zposition Zrotation Yrotation Xrotation 
	JOINT joint_1
	{
		OFFSET 0.000000 0.000000 0.000000
		CHANNELS 3 Zrotation Yrotation Xrotation
		JOINT joint_2
		{
			OFFSET 3.811170 -8.520760 0.839290
			CHANNELS 3 Zrotation Yrotation Xrotation
			JOINT joint_3
			{
				OFFSET 2.562200 -7.039590 0.000000
				CHANNELS 3 Zrotation Yrotation Xrotation
				JOINT joint_4
				{
					OFFSET 0.157640 -0.433110 2.322550
					CHANNELS 3 Zrotation Yrotation Xrotation
					End Site
					{
						OFFSET 0.000000 0.000000 0.000000
					}
				}
			}
		}
	}
	JOINT joint_5
	{
		OFFSET 0.000000 0.000000 0.000000
		CHANNELS 3 Zrotation Yrotation Xrotation
		JOINT joint_6
		{
			OFFSET -3.848050 -8.780180 0.839290
			CHANNELS 3 Zrotation Yrotation Xrotation
			JOINT joint_7
			{
				OFFSET -2.568260 -7.056230 0.000000
				CHANNELS 3 Zrotation Yrotation Xrotation
				JOINT joint_8
				{
					OFFSET -0.164730 -0.452590 2.363150
					CHANNELS 3 Zrotation Yrotation Xrotation
					End Site
					{
						OFFSET 0.000000 0.000000 0.000000
					}
				}
			}
		}
	}
	JOINT joint_9
	{
		OFFSET 0.028270 2.035590 -0.193380
		CHANNELS 3 Zrotation Yrotation Xrotation
		JOINT joint_10
		{
			OFFSET 0.056720 2.048850 -0.042750
			CHANNELS 3 Zrotation Yrotation Xrotation
			JOINT joint_11
			{
				OFFSET -0.054170 1.746240 0.172020
				CHANNELS 3 Zrotation Yrotation Xrotation
				JOINT joint_12
				{
					OFFSET 0.104070 1.761360 -0.123970
					CHANNELS 3 Zrotation Yrotation Xrotation
					End Site
					{
						OFFSET 0.000000 0.000000 0.000000
					}
				}
			}
			JOINT joint_13
			{
				OFFSET 3.362410 1.200890 -0.311210
				CHANNELS 3 Zrotation Yrotation Xrotation
				JOINT joint_14
				{
					OFFSET 4.983000 -0.000000 -0.000000
					CHANNELS 3 Zrotation Yrotation Xrotation
					JOINT joint_15
					{
						OFFSET 3.483560 -0.000000 -0.000000
						CHANNELS 3 Zrotation Yrotation Xrotation
						JOINT joint_16
						{
							OFFSET 0.715260 -0.000000 -0.000000
							CHANNELS 3 Zrotation Yrotation Xrotation
							End Site
							{
								OFFSET 0.000000 0.000000 0.000000
							}
						}
					}
				}
			}
			JOINT joint_17
			{
				OFFSET -3.136600 1.374050 -0.404650
				CHANNELS 3 Zrotation Yrotation Xrotation
				JOINT joint_18
				{
					OFFSET -5.241900 -0.000000 -0.000000
					CHANNELS 3 Zrotation Yrotation Xrotation
					JOINT joint_19
					{
						OFFSET -3.444170 -0.000000 -0.000000
						CHANNELS 3 Zrotation Yrotation Xrotation
						JOINT joint_20
						{
							OFFSET -0.622530 -0.000000 -0.000000
							CHANNELS 3 Zrotation Yrotation Xrotation
							End Site
							{
								OFFSET 0.000000 0.000000 0.000000
							}
						}
					}
				}
			}
		}
	}
}
MOTION
Frames: 16
Frame Time: 0.031667
4.847296 15.567984 -2.364512 -5.013435 -25.555210 3.808602 -7.835489 11.493104 -29.541524 -6.423042 12.880810 28.126540 -6.218133 7.062763 -9.737415 0.404986 -0.355303 -0.723936 7.310241 -5.855645 -1.643303 12.281893 -13.480252 23.779102 2.062216 -3.899822 -13.658007 -0.233407 0.645419 -1.504758 0.908622 -0.170409 -3.806327 -2.158411 -1.552915 -8.965200 4.700435 1.726348 6.332561 0.367952 0.398711 3.029943 -52.088676 -29.316538 8.938980 59.328826 -57.567491 -25.913639 0.628508 -1.289623 7.311823 -7.140488 -0.009334 -0.016105 86.196550 24.152821 34.433828 -63.314501 53.506503 -28.228496 -0.784835 -0.367326 4.771159 7.152626 -0.009990 0.016391 
4.817107 15.564921 -2.375835 -4.960369 -25.233309 3.832239 -7.271463 15.502287 -32.464965 -9.337717 15.058286 28.115765 -3.451395 7.841478 -11.534276 0.499424 -0.122048 -0.189506 5.606302 -7.968900 0.689202 14.324759 -13.264976 21.975797 2.815518 -3.692522 -13.260350 -0.285077 0.345309 -0.432286 2.406449 0.037504 -3.419251 -1.003873 -1.193339 -7.687736 0.803196 1.106799 4.746076 0.652770 0.615920 3.092106 -50.984671 -33.017384 6.395529 61.185709 -61.863919 -24.621476 0.834317 -0.337290 3.567129 -7.136518 -0.008853 -0.018849 88.822683 28.082301 34.828716 -65.724650 57.054537 -28.259213 -1.307968 -1.029053 1.283730 7.155206 -0.012333 0.018521 
4.786918 15.561857 -2.387158 -4.907456 -24.911741 3.856510 -8.652148 18.805312 -31.306732 -10.145796 15.233671 26.855652 -1.947853 7.694083 -12.996424 0.422597 -0.024021 0.048163 2.464186 -9.941557 3.451208 18.095256 -14.247213 22.208722 2.302465 -3.224989 -13.432040 -0.223218 -0.139032 1.027435 0.513143 1.098664 -4.467818 -2.602945 -1.813301 -8.706441 1.796647 2.600842 6.197864 0.701980 0.672329 2.948135 -49.347273 -34.792256 8.727503 61.346471 -62.113474 -23.270101 -0.747616 -0.026813 3.293571 -7.130464 -0.006243 -0.019704 89.548404 29.101182 34.057536 -65.066178 56.231766 -26.987341 -1.576214 -0.829767 1.326337 7.146844 -0.011720 0.018896 
4.756367 15.558990 -2.397638 -4.866138 -24.549143 3.883723 -7.656446 21.010592 -30.401780 -11.628338 14.910086 26.652021 -0.960943 7.037487 -13.235505 0.395053 -0.056597 -0.115844 0.128414 -12.609190 5.584966 19.403179 -13.487365 22.499762 2.751137 -2.840976 -12.081111 0.062055 0.364765 -0.579296 0.646860 1.171227 -5.118849 -2.012250 -2.094037 -8.850677 2.237584 2.182009 4.380237 0.628353 0.532583 2.687735 -45.573484 -35.861205 8.444696 62.162057 -62.514795 -23.803725 0.024571 0.540242 2.587682 -7.131650 -0.006743 -0.018608 90.558589 29.037624 35.398207 -65.770644 54.966856 -25.417584 -1.463035 -0.864809 1.065215 7.145921 -0.010241 0.020454 
4.725811 15.556126 -2.408110 -4.825040 -24.186731 3.911492 -7.622497 22.165690 -30.776754 -13.195685 15.717097 25.571514 -0.785346 7.162141 -13.254347 0.433425 -0.100113 -0.319420 -1.128742 -14.402092 5.789595 21.668879 -14.779300 22.150983 2.898524 -2.521298 -12.366560 0.253043 0.930808 -2.346065 0.863057 0.789761 -4.374943 -2.595595 -1.904492 -9.324002 1.596760 2.208578 4.570896 0.925361 0.448347 2.664012 -41.501722 -37.157110 6.097035 63.634352 -63.057864 -24.090195 -0.189586 0.333514 2.572595 -7.122596 -0.006439 -0.017539 90.676628 28.727697 36.277071 -66.600266 54.388352 -25.772262 -0.848866 -1.024865 1.121424 7.136126 -0.009622 0.023796 
4.695186 15.553324 -2.417671 -4.793570 -23.777342 3.938570 -8.834977 23.047990 -31.130182 -13.779875 16.207800 24.710415 -0.728349 7.996593 -13.086732 0.414734 -0.104886 -0.422685 -2.197914 -16.279589 7.868304 23.914313 -15.888118 21.201886 2.240863 -2.230313 -13.471402 0.224911 1.001586 -2.598025 1.272499 0.851549 -5.161568 -2.770558 -2.298053 -9.523493 1.394024 1.645867 5.038146 1.257726 0.320061 2.511561 -40.791666 -37.855842 5.956841 63.783387 -63.965569 -24.258001 -0.502506 0.558331 2.213334 -7.109624 -0.005740 -0.014887 90.525927 29.888532 37.975620 -68.214206 54.392000 -26.150421 -1.554233 -1.230333 1.385619 7.125820 -0.007156 0.024293 
4.664560 15.550523 -2.427211 -4.762252 -23.367880 3.965985 -8.731770 24.260837 -31.161263 -14.251379 15.635357 24.157804 -0.322535 8.425157 -14.469066 0.363656 0.040343 -0.061744 -3.514064 -16.111685 9.721698 26.629396 -16.139617 20.657702 3.058401 -2.473186 -13.727805 0.157735 1.096244 -2.779649 -0.281876 1.134678 -4.638502 -3.735177 -2.364794 -9.985541 1.542305 1.537378 4.376001 1.262748 0.450491 2.232620 -41.108467 -38.320780 7.100023 65.532619 -64.405603 -23.374289 0.014813 0.873558 1.191090 -7.099474 -0.006143 -0.014082 90.212073 30.580167 38.315930 -68.882581 55.010081 -25.935642 -1.017052 -1.422055 0.967129 7.117554 -0.007230 0.022213 
4.634356 15.547652 -2.435450 -4.730384 -22.914324 3.990155 -7.988909 23.405484 -30.412657 -15.555863 15.318859 23.985104 -0.100672 8.240243 -14.117761 0.414141 0.045591 -0.077538 -2.786742 -16.378599 10.856550 27.823402 -16.451580 19.677374 3.855247 -1.886372 -12.920049 0.226961 1.463221 -3.846219 0.775347 1.236108 -4.708517 -3.792503 -2.852866 -9.790459 2.127390 1.554071 3.597985 1.397805 0.443267 1.944867 -41.760005 -37.421739 7.381601 66.456381 -64.587355 -24.737781 -0.316424 0.420554 1.096978 -7.094678 -0.003399 -0.012016 88.875180 29.995937 38.448303 -69.364300 54.118628 -27.131936 -1.710864 -0.962390 0.804079 7.109930 -0.005032 0.020953 
4.604167 15.544780 -2.443646 -4.698308 -22.460527 4.014283 -8.861115 22.919378 -31.461426 -15.149228 15.639096 24.383769 -0.823225 8.375826 -13.968269 0.471362 -0.011047 -0.269228 -2.894259 -16.455883 10.729134 27.961613 -16.243020 19.280140 3.327685 -1.866966 -13.076270 0.255062 1.505317 -4.136877 0.358213 1.494777 -4.803784 -4.396720 -2.095044 -10.692627 2.506255 0.798238 3.904026 1.730391 0.443932 1.945123 -44.211814 -37.560201 8.650301 66.774463 -64.808339 -25.110779 0.238427 1.211861 0.088565 -7.082388 -0.001047 -0.013467 88.557678 29.588892 38.951049 -71.347630 54.385282 -28.235637 -1.136539 -1.050414 1.058371 7.094103 -0.006936 0.023825 
4.574755 15.541664 -2.450464 -4.659977 -21.971764 4.033286 -8.766059 21.809376 -32.070562 -15.245819 16.765842 25.281286 0.554670 8.358942 -13.844452 0.617151 0.208680 0.330920 -2.402396 -15.437433 10.697853 28.666908 -16.484547 19.516562 4.308294 -2.056278 -13.757312 0.168476 1.093547 -2.868224 0.493270 1.156534 -4.250968 -4.274099 -1.761771 -10.658270 1.614926 0.473284 4.272971 1.973102 0.268085 1.905960 -46.915548 -37.795958 10.889552 67.004757 -65.222016 -25.521229 0.186752 1.224701 0.388840 -7.086304 -0.000891 -0.014706 88.426388 30.080730 38.939079 -71.628583 54.552345 -28.347819 -1.484652 -0.815014 0.589117 7.096168 -0.008003 0.024806 
4.545377 15.538537 -2.457219 -4.621037 -21.482920 4.051727 -8.137311 21.462466 -32.228992 -14.800374 17.125477 26.594924 0.367663 8.383058 -13.763495 0.713054 0.445878 1.016465 -2.279599 -14.978311 11.120295 28.044321 -16.775973 20.393386 4.303313 -2.286347 -13.686812 0.148649 0.847806 -2.107856 0.766837 1.241723 -3.767229 -3.823435 -1.757673 -10.407905 1.711427 0.495728 3.858962 1.935348 0.169558 1.644071 -47.576997 -37.743205 11.658009 67.688541 -65.537420 -26.185449 0.367981 0.951352 0.089828 -7.094015 0.000113 -0.015650 87.530698 30.026598 37.547049 -72.238792 54.733796 -27.903763 -1.226927 -0.468532 1.062031 7.101738 -0.009099 0.025342 
4.516542 15.534935 -2.463170 -4.581652 -20.968489 4.067556 -9.149308 21.108491 -31.509971 -15.754537 16.937686 27.038376 -1.700643 7.603611 -13.675435 0.678563 0.478053 1.109948 -1.560467 -15.389441 11.415870 28.871848 -16.475069 21.555049 2.142353 -1.893795 -14.730770 0.234706 0.729757 -1.928026 0.714211 1.913523 -3.524230 -4.083319 -2.087378 -10.919193 1.925660 0.647336 3.127602 1.781720 0.098409 1.258355 -48.467675 -37.410374 12.383389 68.543530 -65.824835 -26.553144 -0.513926 0.766858 -0.612708 -7.093575 -0.001235 -0.016673 86.643566 30.526383 37.073768 -72.070763 54.946560 -28.342056 -1.091062 -0.277329 1.299670 7.099850 -0.009643 0.027217 
4.487737 15.531307 -2.469074 -4.541675 -20.454391 4.082503 -9.207559 21.068050 -32.477768 -15.232111 16.939441 28.958612 -1.022662 6.801262 -13.868225 0.581099 0.304775 0.611607 -1.611517 -15.663879 11.185732 28.755588 -17.326605 21.237964 1.359901 -2.041639 -15.322718 0.412343 0.873952 -2.458732 1.582864 1.482397 -4.037620 -4.596222 -1.636499 -11.192640 2.137359 -0.120456 3.384306 1.628111 0.110861 1.098613 -46.937432 -37.480776 14.028033 68.578576 -66.671478 -26.075058 0.196079 0.727905 0.149368 -7.094721 -0.000145 -0.016788 86.296742 31.207261 36.579918 -71.582698 55.294387 -28.231262 -1.396515 -0.393899 0.707111 7.102840 -0.009500 0.028187 
4.458851 15.527076 -2.475104 -4.513051 -19.916304 4.102259 -8.954959 20.547596 -32.400256 -15.046844 17.264802 29.266135 -0.489154 6.373469 -14.592890 0.522662 -0.073041 -0.526199 -0.209000 -15.102013 11.839655 27.805475 -17.090983 21.724511 2.246161 -2.518592 -16.550015 0.583042 1.074848 -3.142361 1.057733 1.799277 -3.895998 -4.257398 -1.924594 -11.678292 1.734094 -0.198078 3.076281 1.577608 0.041500 1.106347 -53.244313 -37.285842 13.382305 68.833977 -67.559983 -26.253217 0.273117 0.836558 -0.158299 -7.096605 0.001856 -0.016747 87.014704 31.973198 37.340535 -71.374234 55.443084 -27.191224 -1.725848 -0.894832 0.556303 7.105458 -0.008829 0.027440 
4.429958 15.522803 -2.481144 -4.484348 -19.378630 4.121274 -9.024765 20.291596 -32.675683 -14.743083 17.189860 30.465857 -0.655314 6.356075 -14.649844 0.499773 -0.060516 -0.490094 -0.656623 -15.812282 12.554216 28.371610 -17.001654 21.905646 2.347357 -1.922644 -17.097902 0.647843 0.639645 -2.031202 0.659508 1.357213 -3.497788 -4.797492 -1.757666 -11.450974 1.881591 -0.719139 3.588891 1.563378 0.051792 0.899029 -56.203448 -36.440562 12.803968 68.633750 -68.382440 -26.997632 1.432429 0.302632 -0.027726 -7.097030 0.002231 -0.016378 88.863179 32.690303 39.931523 -71.047935 55.500475 -27.217681 -1.741003 -0.349411 1.060728 7.103638 -0.008514 0.025364 
4.400309 15.517949 -2.488713 -4.471485 -18.805061 4.150620 -9.276232 20.362285 -31.959227 -14.191931 17.212201 30.630940 -0.504258 6.574550 -14.563606 0.642446 0.457948 0.989287 -0.766129 -16.404381 12.780830 29.568586 -17.143153 22.535313 2.383900 -2.573495 -18.005125 0.606368 0.006262 -0.266171 0.585151 1.659652 -3.799759 -4.313367 -0.939609 -11.209318 2.390964 -0.541912 3.353483 1.287971 0.130297 0.896176 -51.941714 -36.141990 9.709102 68.352387 -68.402220 -25.876433 0.932231 -0.170289 -0.201035 -7.101474 0.002200 -0.015405 84.389166 32.788173 36.636728 -70.992734 55.631546 -26.790449 -1.666669 -0.290613 1.395111 7.107642 -0.007541 0.024569 
